<svg width="167" height="169" viewBox="0 0 167 169" fill="none" xmlns="http://www.w3.org/2000/svg">
<path d="M48.0266 132.119C44.9547 133.77 43.9975 137.947 46.017 140.85L51.0416 148.072C53.7804 152.008 58.9461 153.281 63.1118 151.042L159.78 99.0578C163.861 96.8641 165.146 91.3649 162.463 87.5083L157.43 80.2738C155.412 77.3738 151.593 76.4423 148.524 78.0934L48.0266 132.119Z" fill="#FFCCBC"/>
<path d="M46.9735 132.847L46.9759 132.85C44.7623 134.796 44.2517 138.311 46.0188 140.851L47.3848 142.814C74.7413 127.252 104.275 111.185 132.885 95.7741C138.428 92.7884 145.879 94.6207 149.524 99.861L151.91 103.291L159.781 99.058C163.862 96.8642 165.138 91.3522 162.455 87.4957C160.781 85.0885 159.106 82.6812 157.431 80.2739C155.413 77.3739 151.593 76.4409 148.524 78.0919L138.229 83.6251L48.0251 132.119C47.6413 132.326 47.2922 132.573 46.9736 132.847L46.9735 132.847Z" fill="#E6AF99"/>
<path d="M36.7126 115.856C33.6408 117.507 32.6835 121.684 34.7031 124.587L39.7276 131.809C42.4664 135.746 47.6321 137.018 51.7978 134.779L148.466 82.7952C152.547 80.6014 153.832 75.1024 151.149 71.2459L146.116 64.0112C144.098 61.1111 140.279 60.1797 137.21 61.8307L36.7126 115.856Z" fill="#FFA185"/>
<path d="M35.6597 116.585L35.662 116.588C33.4484 118.533 32.9378 122.048 34.7049 124.588L35.5805 125.847C62.1586 111.612 93.6386 94.4423 123.07 78.6446C127.773 76.1203 134.094 77.6821 137.185 82.1249L140.597 87.0283L148.467 82.7955C152.548 80.6018 153.834 75.103 151.151 71.2465C149.473 68.8348 147.795 66.4232 146.117 64.0115C144.1 61.1115 140.279 60.1784 137.21 61.8295L126.915 67.3627L36.7112 115.856C36.3274 116.063 35.9784 116.31 35.6597 116.585L35.6597 116.585Z" fill="#E59079"/>
<path d="M25.4075 99.606C22.3356 101.258 21.3696 105.422 23.3892 108.325L28.4138 115.547C31.1526 119.483 36.3183 120.756 40.484 118.517C72.7063 101.191 104.938 83.8701 137.161 66.5453C141.242 64.3516 142.518 58.84 139.835 54.9836L134.802 47.7489C132.784 44.8489 128.965 43.92 125.896 45.5684C92.3989 63.5783 58.9045 81.5958 25.4075 99.606V99.606Z" fill="#FFCCBC"/>
<path d="M30.6405 55.6285C30.9728 56.7213 32.1001 57.3302 33.1602 56.9894C35.839 56.1326 37.5688 56.7512 39.2772 58.0269C40.9857 59.3026 42.4603 61.3666 43.717 63.1731C44.3685 64.1027 45.6275 64.3113 46.5285 63.6389C47.4251 62.9705 47.6307 61.681 46.9888 60.7516C45.732 58.9451 44.0767 56.4889 41.6436 54.6721C39.2106 52.8553 35.7924 51.804 31.96 53.0297C30.724 53.5156 30.3563 54.545 30.6405 55.6285V55.6285Z" fill="#349951"/>
<path d="M24.3551 100.335C22.1397 102.278 21.6216 105.782 23.3888 108.323L24.7664 110.303C53.4297 94.1001 84.7948 76.9425 109.993 63.392C115.684 60.3317 123.331 62.2109 127.073 67.5891L129.292 70.7792C131.915 69.3687 134.539 67.9569 137.162 66.5464C141.243 64.3527 142.52 58.8406 141.009 56.6686L134.803 47.7492C132.786 44.8491 128.965 43.9187 125.896 45.5672C124.423 46.3592 122.95 47.1523 121.477 47.9444C87.5219 66.145 53.3848 84.5465 24.3551 100.335V100.335Z" fill="#E6AF99"/>
<path d="M35.9894 70.547C32.191 75.3142 26.3204 86.334 22.0066 98.6346C21.7402 99.3948 21.5845 100.118 21.633 100.911C22.0744 103.734 24.1163 104.735 27.2261 103.298L35.4132 98.8986L40.6803 106.469C43.3969 110.374 48.7348 111.28 52.5206 108.478C54.1876 107.244 55.0317 105.385 55.5123 103.472C58.4066 105.891 62.3744 106.655 65.5362 104.315C69.3221 101.513 70.1999 96.0079 67.4832 92.103L62.1986 84.507L95.2665 66.7112L100.629 74.4191C103.345 78.3239 108.683 79.2292 112.469 76.4273C116.255 73.6253 117.133 68.1199 114.416 64.2151L110.474 58.5491L127.804 49.2316C129.106 48.5316 129.689 46.9233 129.409 45.6488C129.128 44.3743 127.922 43.1894 126.455 43.138L70.6115 41.1569C70.2783 41.1476 69.9476 41.2232 69.6497 41.378C62.1019 45.2226 55.4976 49.8522 52.4934 52.6036L35.9894 70.547Z" fill="#DF2A72"/>
<path d="M56.5477 49.5028C38.4011 61.7639 28.2319 81.448 22.0046 98.6332C21.1065 100.861 21.9968 102.763 22.8237 103.323C28.4786 87.228 39.4709 76.2492 50.6461 64.1913C53.6509 61.4391 60.2548 56.8103 67.8027 52.9658C68.1007 52.8128 68.4294 52.7357 68.7618 52.7446L118.018 54.4908L127.802 49.2314C129.104 48.5314 129.688 46.922 129.407 45.6475C129.127 44.373 127.922 43.1875 126.455 43.136L70.6098 41.1561C70.2774 41.1471 69.9479 41.223 69.6507 41.3773C64.9334 43.7802 60.5825 46.492 56.5477 49.5028V49.5028Z" fill="#C42566"/>
<path d="M53.5933 121.376L48.3142 125.303C48.0999 125.462 47.9183 125.664 47.7796 125.896C47.6409 126.129 47.5479 126.387 47.5059 126.656C47.464 126.925 47.4739 127.2 47.5351 127.466C47.5963 127.731 47.7077 127.982 47.8627 128.203C48.0176 128.424 48.2132 128.611 48.4383 128.754C48.6634 128.897 48.9137 128.993 49.1748 129.036C49.4359 129.079 49.7026 129.069 49.9599 129.006C50.2171 128.943 50.4598 128.828 50.674 128.668L55.941 124.751C56.8028 124.11 57.7949 123.681 58.8436 123.507L64.2449 122.622C66.0519 122.324 67.6972 121.367 68.8808 119.927L71.9202 116.225C72.4837 115.54 73.256 115.083 74.1165 114.94L79.542 114.037C81.3489 113.735 83.001 112.763 84.1812 111.32L87.1568 107.684C87.719 106.997 88.4927 106.545 89.3527 106.398L94.8352 105.472C96.6392 105.164 98.2735 104.192 99.4538 102.752L102.441 99.1067C103.003 98.4205 103.791 97.9568 104.65 97.8123L110.087 96.9002C111.894 96.5964 113.536 95.6376 114.714 94.1922L117.65 90.6046C118.21 89.9192 118.989 89.4622 119.846 89.3183L125.275 88.3941C127.079 88.0915 128.727 87.1348 129.911 85.699L132.987 81.9703C133.566 81.2684 134.369 80.789 135.247 80.6183L142.511 79.2034C143.035 79.1025 143.499 78.7912 143.801 78.3379C144.102 77.8846 144.217 77.3263 144.121 76.7855C144.071 76.5174 143.971 76.262 143.826 76.0339C143.681 75.8057 143.494 75.6094 143.275 75.456C143.056 75.3026 142.81 75.1952 142.551 75.14C142.292 75.0847 142.024 75.0825 141.765 75.1338L134.492 76.5362C132.709 76.8825 131.099 77.851 129.924 79.2761L126.836 83.0138C126.27 83.7001 125.502 84.1548 124.64 84.2993L119.202 85.2112C117.395 85.5144 115.754 86.4738 114.575 87.9192L111.636 91.528C111.076 92.2142 110.297 92.6696 109.439 92.8138L104.002 93.7257C102.196 94.0292 100.555 94.9918 99.3745 96.4334L96.387 100.078C95.8237 100.766 95.0393 101.226 94.1784 101.373L88.6966 102.3C86.8922 102.607 85.2488 103.566 84.0695 105.008L81.1026 108.656C80.542 109.342 79.7559 109.786 78.8977 109.93L73.4809 110.845C71.6753 111.147 70.0281 112.101 68.845 113.54L65.8057 117.242C65.2431 117.927 64.4598 118.373 63.6008 118.516L58.2201 119.404C56.5519 119.68 54.9639 120.358 53.5932 121.376L53.5933 121.376Z" fill="#FFEFEB"/>
<path d="M66.4033 53.4584L67.165 58.3648C67.3412 59.5008 68.3793 60.2724 69.4798 60.0854C70.5812 59.9037 71.3293 58.8329 71.148 57.6978L70.3863 52.7914C70.2101 51.6554 69.172 50.8838 68.0715 51.0708C66.7428 51.3566 66.1871 52.3395 66.4033 53.4584V53.4584ZM76.1257 50.58C75.6097 51.5967 75.9913 52.8523 76.9776 53.3833L81.2402 55.6987C82.2247 56.2393 83.4477 55.8512 83.9673 54.8333C84.4833 53.8166 84.1017 52.561 83.1154 52.0299L78.8528 49.7145C77.4262 49.318 76.9757 49.728 76.1257 50.58ZM58.5398 71.3616C57.5636 72.0766 57.3394 73.4751 58.0404 74.4763C58.738 75.474 60.0886 75.6978 61.0542 74.9758C62.014 74.259 62.233 72.8776 61.5445 71.8828C60.8539 70.8838 59.5092 70.6505 58.5398 71.3616ZM39.1632 88.6721C39.3446 89.7978 40.373 90.5615 41.4656 90.3819L46.2226 89.5963C47.3219 89.4189 48.0731 88.3554 47.9 87.2219C47.7248 86.0865 46.6885 85.314 45.5883 85.4989L40.8313 86.2845C39.5196 86.6143 39.0009 87.6364 39.1632 88.6721V88.6721ZM71.3204 66.2297C71.4924 67.3635 72.5234 68.1383 73.6225 67.9597L78.3923 67.1647C79.4842 66.9764 80.2238 65.9139 80.0477 64.7866C79.8694 63.6624 78.8463 62.8963 77.7548 63.0697L72.9978 63.8553C71.6716 64.1536 71.2241 65.1826 71.3204 66.2297ZM87.3247 55.5277C86.3511 56.2436 86.1285 57.6401 86.8286 58.64C87.5253 59.6365 88.8735 59.8612 89.8392 59.1419C90.799 58.4251 91.018 57.0437 90.3295 56.0489C89.6389 55.0498 88.2942 54.8166 87.3247 55.5277ZM97.3349 50.8441C96.3575 51.5601 96.1341 52.961 96.8378 53.9621C97.5363 54.9573 98.885 55.1795 99.8493 54.4583C100.808 53.7425 101.028 52.3634 100.342 51.3687C99.6522 50.367 98.3056 50.1321 97.3349 50.8441Z" fill="#FFEFEB"/>
<path d="M42.9755 56.4027C38.6637 59.5939 37.4198 65.7149 40.4373 70.0522C43.4549 74.3896 49.4838 75.1466 53.7956 71.9554C58.1075 68.7642 59.3427 62.6308 56.3252 58.2934C53.3077 53.9561 47.2874 53.2114 42.9755 56.4027Z" fill="#A60F0C"/>
<path d="M42.9751 56.4036C39.876 58.6973 38.3957 62.5 38.9095 66.0706C39.6221 64.5851 40.6565 63.2304 42.0513 62.1981C46.3631 59.0069 52.3827 59.7501 55.4003 64.0875C56.2517 65.3113 56.7285 66.6832 56.9291 68.0866C58.4202 64.9739 58.3671 61.2295 56.324 58.2929C53.3066 53.9555 47.287 53.2124 42.9751 56.4036Z" fill="#940F0C"/>
<path d="M66.4033 53.4583L66.4394 53.6911C66.8945 53.4499 67.341 53.2018 67.8031 52.9664C68.101 52.8133 68.43 52.7365 68.7624 52.7455L70.39 52.8036L70.3864 52.7912C70.2102 51.6553 69.172 50.8837 68.0715 51.0706C66.7234 51.3285 66.2077 52.31 66.4033 53.4582L66.4033 53.4583ZM76.1257 50.58C75.7151 51.3877 75.8636 52.3772 76.4919 53.0191L84.1144 53.2919C83.962 52.7484 83.6012 52.2926 83.1154 52.0299L78.8528 49.7145C77.6185 49.1525 76.7327 49.5905 76.1257 50.58ZM97.3349 50.8441C96.4379 51.4996 96.1626 52.7462 96.6961 53.7376L100.391 53.8674C100.873 53.1028 100.854 52.1123 100.342 51.3687C99.6522 50.367 98.3056 50.1321 97.3349 50.8441Z" fill="#E5D8D4"/>
<path d="M62.2033 137.641C61.9879 137.799 61.8048 138 61.6645 138.231C61.5241 138.462 61.4293 138.719 61.3854 138.988C61.3415 139.257 61.3494 139.532 61.4086 139.798C61.4677 140.064 61.5771 140.315 61.7304 140.537L67.3956 148.722L70.998 146.784L65.0105 138.129C64.8572 137.907 64.663 137.718 64.439 137.573C64.2149 137.429 63.9655 137.331 63.7048 137.286C63.4441 137.24 63.1774 137.248 62.9197 137.309C62.6621 137.37 62.4186 137.483 62.2033 137.641V137.641ZM73.781 131.413C73.5656 131.571 73.3825 131.772 73.2422 132.003C73.1019 132.234 73.0071 132.491 72.9632 132.76C72.9192 133.029 72.9271 133.304 72.9863 133.57C73.0455 133.835 73.1548 134.087 73.3081 134.309L78.9851 142.49L82.5811 140.557L76.5881 131.901C76.4349 131.679 76.2407 131.49 76.0167 131.345C75.7926 131.201 75.5432 131.103 75.2825 131.058C75.0218 131.012 74.755 131.02 74.4974 131.081C74.2398 131.142 73.9963 131.255 73.7809 131.413L73.781 131.413ZM85.3784 125.186C84.9481 125.507 84.6582 125.99 84.572 126.531C84.4859 127.072 84.6103 127.625 84.9183 128.072L90.5835 136.257L94.1859 134.319L88.1765 125.66C87.8652 125.216 87.3964 124.917 86.8722 124.829C86.3481 124.74 85.8112 124.868 85.3785 125.186L85.3784 125.186ZM96.9689 118.948C96.7535 119.106 96.5705 119.307 96.4301 119.538C96.2898 119.769 96.195 120.026 96.1511 120.295C96.1072 120.564 96.115 120.839 96.1742 121.105C96.2334 121.37 96.3428 121.622 96.496 121.844L102.164 130.032L105.769 128.092L99.7761 119.436C99.6229 119.214 99.4287 119.025 99.2046 118.88C98.9806 118.736 98.7311 118.638 98.4705 118.592C98.2098 118.547 97.943 118.555 97.6854 118.616C97.4277 118.677 97.1843 118.79 96.9689 118.948ZM108.544 112.717C108.328 112.876 108.144 113.078 108.003 113.311C107.862 113.544 107.768 113.803 107.725 114.074C107.682 114.344 107.692 114.621 107.753 114.888C107.814 115.155 107.927 115.407 108.083 115.629L113.753 123.8L117.361 121.864L111.354 113.208C111.201 112.985 111.007 112.796 110.783 112.651C110.558 112.505 110.309 112.407 110.048 112.361C109.787 112.316 109.52 112.324 109.262 112.385C109.004 112.446 108.76 112.559 108.544 112.717ZM120.131 106.502C119.916 106.66 119.733 106.86 119.593 107.092C119.452 107.323 119.357 107.58 119.313 107.849C119.27 108.118 119.277 108.393 119.337 108.659C119.396 108.924 119.505 109.175 119.658 109.398L125.324 117.582L128.929 115.643L122.933 106.974C122.621 106.53 122.151 106.231 121.626 106.142C121.101 106.054 120.564 106.183 120.131 106.502L120.131 106.502ZM131.722 100.265C131.506 100.423 131.323 100.623 131.183 100.854C131.043 101.085 130.948 101.342 130.904 101.611C130.86 101.88 130.868 102.155 130.927 102.421C130.986 102.687 131.096 102.938 131.249 103.16L136.928 111.344L140.534 109.405L134.529 100.752C134.376 100.53 134.182 100.341 133.958 100.197C133.733 100.052 133.484 99.9541 133.223 99.9088C132.963 99.8635 132.696 99.8716 132.438 99.9327C132.181 99.9937 131.937 100.107 131.722 100.265V100.265ZM143.31 94.0238C143.094 94.1827 142.91 94.3842 142.769 94.6167C142.629 94.8492 142.534 95.1081 142.491 95.3785C142.448 95.6489 142.457 95.9254 142.518 96.1921C142.579 96.4588 142.691 96.7104 142.846 96.9324L148.512 105.117L152.117 103.177L146.117 94.5116C145.964 94.2894 145.77 94.1006 145.546 93.9559C145.322 93.8111 145.072 93.7133 144.812 93.668C144.551 93.6228 144.284 93.6309 144.027 93.6919C143.769 93.753 143.525 93.8657 143.31 94.0238Z" fill="#E6AF99"/>
<path d="M131.328 77.9765C132.973 78.4782 134.515 79.3205 135.778 80.5126L142.512 79.2021C143.036 79.1008 143.499 78.7893 143.801 78.336C144.102 77.8827 144.217 77.3246 144.12 76.7841C144.071 76.5161 143.97 76.2608 143.825 76.0328C143.68 75.8048 143.492 75.6086 143.273 75.4555C143.054 75.3023 142.808 75.1951 142.549 75.1401C142.29 75.0851 142.023 75.0832 141.763 75.1347L134.493 76.5374C133.337 76.762 132.268 77.2733 131.328 77.9765Z" fill="#EBDDD9"/>
<path d="M143.31 94.0239C142.989 94.2589 142.742 94.5858 142.6 94.9641C145.339 95.7928 147.843 97.4443 149.524 99.861L151.91 103.291L152.117 103.178L146.117 94.5117C145.964 94.2895 145.77 94.1007 145.546 93.956C145.322 93.8112 145.072 93.7134 144.812 93.6681C144.551 93.6228 144.284 93.631 144.027 93.692C143.769 93.753 143.525 93.8658 143.31 94.0239L143.31 94.0239Z" fill="#CC9B86"/>
</svg>
